<svg xmlns="http://www.w3.org/2000/svg" id="Layer_1" data-name="Layer 1" viewBox="0 0 64 64"><defs><style>.cls-1{fill:#045385}.cls-2{fill:#141e27}</style></defs><rect width="21" height="4" x="28" y="38" class="cls-1"/><rect width="28" height="4" x="28" y="46" class="cls-1"/><rect width="21" height="4" x="28" y="54" class="cls-1"/><rect width="21" height="4" x="15" y="22" class="cls-1"/><rect width="28" height="4" x="8" y="14" class="cls-1"/><rect width="21" height="4" x="15" y="6" class="cls-1"/><path d="M48,32A16,16,0,1,1,64,16,16,16,0,0,1,48,32ZM48,4A12,12,0,1,0,60,16,12,12,0,0,0,48,4Z" class="cls-2"/><path d="M16,64A16,16,0,1,1,32,48,16,16,0,0,1,16,64Zm0-28A12,12,0,1,0,28,48,12,12,0,0,0,16,36Z" class="cls-2"/></svg>