<svg xmlns="http://www.w3.org/2000/svg" width="48" height="48" fill="none" viewBox="0 0 48 48"><g clip-path="url(#clip0)"><circle cx="24" cy="24" r="21.219" fill="#EFF0F5" stroke="#C4C7D6" stroke-width="1.742"/><circle cx="24" cy="24" r="21.219" fill="#EFF0F5" stroke="#C4C7D6" stroke-width="1.742"/><circle cx="24" cy="22.708" r="21.219" fill="#EFF0F5" stroke="#C4C7D6" stroke-width="1.742"/><circle cx="24" cy="22.708" r="21.219" fill="#EFF0F5" stroke="#C4C7D6" stroke-width="1.742"/><circle cx="24" cy="23.999" r="24" fill="#F9FAFB"/><mask id="mask0" width="26" height="39" x="11" y="10" mask-type="alpha" maskUnits="userSpaceOnUse"><path fill="#050F19" d="M23.9987 27.1245C28.6133 27.1245 32.3541 23.3837 32.3541 18.7691C32.3541 14.1545 28.6133 10.4137 23.9987 10.4137C19.3842 10.4137 15.6433 14.1545 15.6433 18.7691C15.6433 23.3837 19.3842 27.1245 23.9987 27.1245Z"/><path fill="#050F19" d="M11.3441 37.2679V44.4817C11.3441 45.4151 11.8406 46.3102 12.7243 46.9702C13.6081 47.6302 14.8067 48.0009 16.0565 48.0009H31.9435C33.1933 48.0009 34.3919 47.6302 35.2756 46.9702C36.1594 46.3102 36.6558 45.4151 36.6558 44.4817V37.2679C36.6558 35.3534 35.6378 33.5173 33.8255 32.1632C32.0132 30.8091 29.555 30.0479 26.9914 30.0469H21.0086C18.445 30.0479 15.9868 30.8091 14.1745 32.1632C12.3622 33.5173 11.3441 35.3534 11.3441 37.2679V37.2679Z"/></mask><g mask="url(#mask0)"><circle cx="24" cy="24" r="24" fill="#050F19"/></g><circle cx="24" cy="23.999" r="24" fill="#F9FAFB"/><mask id="mask1" width="26" height="39" x="11" y="10" mask-type="alpha" maskUnits="userSpaceOnUse"><path fill="#050F19" d="M23.9987 27.1245C28.6133 27.1245 32.3541 23.3837 32.3541 18.7691C32.3541 14.1545 28.6133 10.4137 23.9987 10.4137C19.3842 10.4137 15.6433 14.1545 15.6433 18.7691C15.6433 23.3837 19.3842 27.1245 23.9987 27.1245Z"/><path fill="#050F19" d="M11.3441 37.2679V44.4817C11.3441 45.4151 11.8406 46.3102 12.7243 46.9702C13.6081 47.6302 14.8067 48.0009 16.0565 48.0009H31.9435C33.1933 48.0009 34.3919 47.6302 35.2756 46.9702C36.1594 46.3102 36.6558 45.4151 36.6558 44.4817V37.2679C36.6558 35.3534 35.6378 33.5173 33.8255 32.1632C32.0132 30.8091 29.555 30.0479 26.9914 30.0469H21.0086C18.445 30.0479 15.9868 30.8091 14.1745 32.1632C12.3622 33.5173 11.3441 35.3534 11.3441 37.2679V37.2679Z"/></mask><g mask="url(#mask1)"><circle cx="24" cy="24" r="24" fill="#050F19"/></g></g><defs><clipPath id="clip0"><rect width="48" height="48" fill="#fff"/></clipPath></defs></svg>